<mxfile host="app.diagrams.net" agent="Mozilla/5.0 (Linux; arm_64; Android 14; SM-A525F) AppleWebKit/537.36 (KHTML, like Gecko) Chrome/132.0.6834.2037 YaApp_Android/25.20.1 YaSearchBrowser/25.20.1 BroPP/1.0 SA/3 Mobile Safari/537.36" version="27.0.9">
  <diagram name="Страница — 1" id="pEUt76tnA1dPW8EihO5h">
    <mxGraphModel dx="1228" dy="574" grid="1" gridSize="10" guides="1" tooltips="1" connect="1" arrows="1" fold="1" page="1" pageScale="1" pageWidth="827" pageHeight="1169" math="0" shadow="0">
      <root>
        <mxCell id="0" />
        <mxCell id="1" parent="0" />
        <mxCell id="7u9iXZtJOxeO_7T2Gz0u-1" value="user" style="shape=umlActor;verticalLabelPosition=bottom;verticalAlign=top;html=1;" vertex="1" parent="1">
          <mxGeometry x="40" y="260" width="30" height="60" as="geometry" />
        </mxCell>
        <mxCell id="7u9iXZtJOxeO_7T2Gz0u-2" value="Actor" style="shape=umlActor;verticalLabelPosition=bottom;verticalAlign=top;html=1;rotation=0;" vertex="1" parent="1">
          <mxGeometry x="797" y="260" width="30" height="60" as="geometry" />
        </mxCell>
        <mxCell id="7u9iXZtJOxeO_7T2Gz0u-4" value="authorisation" style="ellipse;whiteSpace=wrap;html=1;" vertex="1" parent="1">
          <mxGeometry x="160" y="100" width="140" height="70" as="geometry" />
        </mxCell>
        <mxCell id="7u9iXZtJOxeO_7T2Gz0u-5" value="data filtering" style="ellipse;whiteSpace=wrap;html=1;" vertex="1" parent="1">
          <mxGeometry x="160" y="220" width="140" height="70" as="geometry" />
        </mxCell>
        <mxCell id="7u9iXZtJOxeO_7T2Gz0u-6" value="report generation" style="ellipse;whiteSpace=wrap;html=1;" vertex="1" parent="1">
          <mxGeometry x="170" y="360" width="140" height="70" as="geometry" />
        </mxCell>
        <mxCell id="7u9iXZtJOxeO_7T2Gz0u-7" value="CRUD:humanq" style="ellipse;whiteSpace=wrap;html=1;" vertex="1" parent="1">
          <mxGeometry x="400" y="150" width="140" height="70" as="geometry" />
        </mxCell>
        <mxCell id="7u9iXZtJOxeO_7T2Gz0u-8" value="&lt;div&gt;&lt;br&gt;&lt;/div&gt;&lt;div&gt;&lt;br&gt;&lt;/div&gt;" style="endArrow=open;html=1;endSize=12;startArrow=diamondThin;startSize=14;startFill=1;edgeStyle=orthogonalEdgeStyle;align=left;verticalAlign=bottom;rounded=0;entryX=0;entryY=0.5;entryDx=0;entryDy=0;" edge="1" parent="1" target="7u9iXZtJOxeO_7T2Gz0u-4">
          <mxGeometry x="-0.8571" y="-95" relative="1" as="geometry">
            <mxPoint x="60" y="315" as="sourcePoint" />
            <mxPoint x="160" y="320" as="targetPoint" />
            <Array as="points">
              <mxPoint x="130" y="315" />
              <mxPoint x="130" y="135" />
            </Array>
            <mxPoint as="offset" />
          </mxGeometry>
        </mxCell>
        <mxCell id="7u9iXZtJOxeO_7T2Gz0u-9" value="&lt;div&gt;&lt;br&gt;&lt;/div&gt;&lt;div&gt;&lt;br&gt;&lt;/div&gt;" style="endArrow=block;endFill=1;html=1;edgeStyle=orthogonalEdgeStyle;align=left;verticalAlign=top;rounded=0;entryX=0.5;entryY=1;entryDx=0;entryDy=0;" edge="1" parent="1" target="7u9iXZtJOxeO_7T2Gz0u-5">
          <mxGeometry x="-1" y="-122" relative="1" as="geometry">
            <mxPoint x="120" y="310" as="sourcePoint" />
            <mxPoint x="280" y="310" as="targetPoint" />
            <mxPoint x="-19" y="-2" as="offset" />
          </mxGeometry>
        </mxCell>
        <mxCell id="7u9iXZtJOxeO_7T2Gz0u-10" value="1" style="edgeLabel;resizable=0;html=1;align=left;verticalAlign=bottom;" connectable="0" vertex="1" parent="7u9iXZtJOxeO_7T2Gz0u-9">
          <mxGeometry x="-1" relative="1" as="geometry" />
        </mxCell>
        <mxCell id="7u9iXZtJOxeO_7T2Gz0u-11" value="" style="endArrow=block;endFill=1;html=1;edgeStyle=orthogonalEdgeStyle;align=left;verticalAlign=top;rounded=0;entryX=0.319;entryY=0.091;entryDx=0;entryDy=0;entryPerimeter=0;" edge="1" parent="1" target="7u9iXZtJOxeO_7T2Gz0u-6">
          <mxGeometry x="-1" y="-114" relative="1" as="geometry">
            <mxPoint x="130" y="310" as="sourcePoint" />
            <mxPoint x="210" y="310" as="targetPoint" />
            <Array as="points">
              <mxPoint x="130" y="311" />
              <mxPoint x="215" y="311" />
            </Array>
            <mxPoint x="-29" y="-4" as="offset" />
          </mxGeometry>
        </mxCell>
        <mxCell id="7u9iXZtJOxeO_7T2Gz0u-12" value="1" style="edgeLabel;resizable=0;html=1;align=left;verticalAlign=bottom;" connectable="0" vertex="1" parent="7u9iXZtJOxeO_7T2Gz0u-11">
          <mxGeometry x="-1" relative="1" as="geometry" />
        </mxCell>
        <mxCell id="7u9iXZtJOxeO_7T2Gz0u-13" value="" style="endArrow=block;endFill=1;html=1;edgeStyle=orthogonalEdgeStyle;align=left;verticalAlign=top;rounded=0;entryX=0.5;entryY=1;entryDx=0;entryDy=0;" edge="1" parent="1" target="7u9iXZtJOxeO_7T2Gz0u-7">
          <mxGeometry x="-1" relative="1" as="geometry">
            <mxPoint x="210" y="310" as="sourcePoint" />
            <mxPoint x="470" y="300" as="targetPoint" />
          </mxGeometry>
        </mxCell>
        <mxCell id="7u9iXZtJOxeO_7T2Gz0u-14" value="1" style="edgeLabel;resizable=0;html=1;align=left;verticalAlign=bottom;" connectable="0" vertex="1" parent="7u9iXZtJOxeO_7T2Gz0u-13">
          <mxGeometry x="-1" relative="1" as="geometry" />
        </mxCell>
        <mxCell id="7u9iXZtJOxeO_7T2Gz0u-15" value="include" style="endArrow=block;dashed=1;endFill=0;endSize=12;html=1;rounded=0;entryX=0;entryY=0.5;entryDx=0;entryDy=0;" edge="1" parent="1" target="7u9iXZtJOxeO_7T2Gz0u-7">
          <mxGeometry width="160" relative="1" as="geometry">
            <mxPoint x="300" y="134.66" as="sourcePoint" />
            <mxPoint x="460" y="134.66" as="targetPoint" />
            <Array as="points">
              <mxPoint x="330" y="135" />
              <mxPoint x="330" y="185" />
            </Array>
          </mxGeometry>
        </mxCell>
        <mxCell id="7u9iXZtJOxeO_7T2Gz0u-16" value="" style="endArrow=block;dashed=1;endFill=0;endSize=12;html=1;rounded=0;entryX=0.673;entryY=1.006;entryDx=0;entryDy=0;entryPerimeter=0;" edge="1" parent="1" target="7u9iXZtJOxeO_7T2Gz0u-5">
          <mxGeometry x="-1" y="246" width="160" relative="1" as="geometry">
            <mxPoint x="254" y="359" as="sourcePoint" />
            <mxPoint x="414" y="359" as="targetPoint" />
            <mxPoint x="32" y="122" as="offset" />
          </mxGeometry>
        </mxCell>
        <mxCell id="7u9iXZtJOxeO_7T2Gz0u-17" value="extends" style="endArrow=block;dashed=1;endFill=0;endSize=12;html=1;rounded=0;entryX=0;entryY=1;entryDx=0;entryDy=0;" edge="1" parent="1" target="7u9iXZtJOxeO_7T2Gz0u-7">
          <mxGeometry width="160" relative="1" as="geometry">
            <mxPoint x="300" y="260" as="sourcePoint" />
            <mxPoint x="460" y="260" as="targetPoint" />
            <Array as="points">
              <mxPoint x="420" y="260" />
            </Array>
          </mxGeometry>
        </mxCell>
        <mxCell id="7u9iXZtJOxeO_7T2Gz0u-18" value="Add rows" style="ellipse;whiteSpace=wrap;html=1;" vertex="1" parent="1">
          <mxGeometry x="540" y="30" width="140" height="70" as="geometry" />
        </mxCell>
        <mxCell id="7u9iXZtJOxeO_7T2Gz0u-19" value="database" style="shape=datastore;whiteSpace=wrap;html=1;" vertex="1" parent="1">
          <mxGeometry x="737" y="40" width="60" height="60" as="geometry" />
        </mxCell>
        <mxCell id="7u9iXZtJOxeO_7T2Gz0u-20" value="" style="endArrow=block;endFill=1;html=1;edgeStyle=orthogonalEdgeStyle;align=left;verticalAlign=top;rounded=0;exitX=0.5;exitY=0;exitDx=0;exitDy=0;exitPerimeter=0;entryX=0.5;entryY=1;entryDx=0;entryDy=0;" edge="1" parent="1" source="7u9iXZtJOxeO_7T2Gz0u-2" target="7u9iXZtJOxeO_7T2Gz0u-19">
          <mxGeometry x="-1" relative="1" as="geometry">
            <mxPoint x="690" y="210" as="sourcePoint" />
            <mxPoint x="850" y="210" as="targetPoint" />
          </mxGeometry>
        </mxCell>
        <mxCell id="7u9iXZtJOxeO_7T2Gz0u-21" value="1" style="edgeLabel;resizable=0;html=1;align=left;verticalAlign=bottom;" connectable="0" vertex="1" parent="7u9iXZtJOxeO_7T2Gz0u-20">
          <mxGeometry x="-1" relative="1" as="geometry" />
        </mxCell>
        <mxCell id="7u9iXZtJOxeO_7T2Gz0u-22" value="" style="endArrow=block;endFill=1;html=1;edgeStyle=orthogonalEdgeStyle;align=left;verticalAlign=top;rounded=0;exitX=0.5;exitY=0.5;exitDx=0;exitDy=0;exitPerimeter=0;entryX=0.5;entryY=1;entryDx=0;entryDy=0;" edge="1" parent="1" source="7u9iXZtJOxeO_7T2Gz0u-2" target="7u9iXZtJOxeO_7T2Gz0u-18">
          <mxGeometry x="-1" relative="1" as="geometry">
            <mxPoint x="630" y="270" as="sourcePoint" />
            <mxPoint x="790" y="270" as="targetPoint" />
            <Array as="points">
              <mxPoint x="787" y="290" />
              <mxPoint x="787" y="271" />
              <mxPoint x="610" y="271" />
            </Array>
          </mxGeometry>
        </mxCell>
        <mxCell id="7u9iXZtJOxeO_7T2Gz0u-23" value="1" style="edgeLabel;resizable=0;html=1;align=left;verticalAlign=bottom;" connectable="0" vertex="1" parent="7u9iXZtJOxeO_7T2Gz0u-22">
          <mxGeometry x="-1" relative="1" as="geometry" />
        </mxCell>
        <mxCell id="7u9iXZtJOxeO_7T2Gz0u-24" value="create category table" style="ellipse;whiteSpace=wrap;html=1;" vertex="1" parent="1">
          <mxGeometry x="480" y="290" width="140" height="70" as="geometry" />
        </mxCell>
        <mxCell id="7u9iXZtJOxeO_7T2Gz0u-25" value="&lt;div&gt;&lt;br&gt;&lt;/div&gt;&lt;div&gt;&lt;br&gt;&lt;/div&gt;" style="endArrow=block;endFill=1;html=1;edgeStyle=orthogonalEdgeStyle;align=left;verticalAlign=top;rounded=0;entryX=1;entryY=0.5;entryDx=0;entryDy=0;" edge="1" parent="1" target="7u9iXZtJOxeO_7T2Gz0u-24">
          <mxGeometry x="-1" relative="1" as="geometry">
            <mxPoint x="810" y="290" as="sourcePoint" />
            <mxPoint x="800" y="370" as="targetPoint" />
          </mxGeometry>
        </mxCell>
        <mxCell id="7u9iXZtJOxeO_7T2Gz0u-26" value="1" style="edgeLabel;resizable=0;html=1;align=left;verticalAlign=bottom;" connectable="0" vertex="1" parent="7u9iXZtJOxeO_7T2Gz0u-25">
          <mxGeometry x="-1" relative="1" as="geometry" />
        </mxCell>
        <mxCell id="7u9iXZtJOxeO_7T2Gz0u-27" value="data export" style="ellipse;whiteSpace=wrap;html=1;" vertex="1" parent="1">
          <mxGeometry x="540" y="380" width="140" height="70" as="geometry" />
        </mxCell>
        <mxCell id="7u9iXZtJOxeO_7T2Gz0u-28" value="" style="endArrow=block;endFill=1;html=1;edgeStyle=orthogonalEdgeStyle;align=left;verticalAlign=top;rounded=0;entryX=1;entryY=0;entryDx=0;entryDy=0;" edge="1" parent="1" target="7u9iXZtJOxeO_7T2Gz0u-27">
          <mxGeometry x="-1" relative="1" as="geometry">
            <mxPoint x="810" y="300" as="sourcePoint" />
            <mxPoint x="970" y="300" as="targetPoint" />
          </mxGeometry>
        </mxCell>
        <mxCell id="7u9iXZtJOxeO_7T2Gz0u-29" value="1" style="edgeLabel;resizable=0;html=1;align=left;verticalAlign=bottom;" connectable="0" vertex="1" parent="7u9iXZtJOxeO_7T2Gz0u-28">
          <mxGeometry x="-1" relative="1" as="geometry" />
        </mxCell>
        <mxCell id="7u9iXZtJOxeO_7T2Gz0u-30" value="delete table" style="ellipse;whiteSpace=wrap;html=1;" vertex="1" parent="1">
          <mxGeometry x="687" y="460" width="140" height="70" as="geometry" />
        </mxCell>
        <mxCell id="7u9iXZtJOxeO_7T2Gz0u-31" value="&lt;div&gt;&lt;br&gt;&lt;/div&gt;&lt;div&gt;&lt;br&gt;&lt;/div&gt;" style="endArrow=block;endFill=1;html=1;edgeStyle=orthogonalEdgeStyle;align=left;verticalAlign=top;rounded=0;entryX=0;entryY=0;entryDx=0;entryDy=0;" edge="1" parent="1" target="7u9iXZtJOxeO_7T2Gz0u-30">
          <mxGeometry x="-1" relative="1" as="geometry">
            <mxPoint x="810" y="290" as="sourcePoint" />
            <mxPoint x="970" y="290" as="targetPoint" />
          </mxGeometry>
        </mxCell>
        <mxCell id="7u9iXZtJOxeO_7T2Gz0u-32" value="1" style="edgeLabel;resizable=0;html=1;align=left;verticalAlign=bottom;" connectable="0" vertex="1" parent="7u9iXZtJOxeO_7T2Gz0u-31">
          <mxGeometry x="-1" relative="1" as="geometry" />
        </mxCell>
        <mxCell id="7u9iXZtJOxeO_7T2Gz0u-33" value="include" style="html=1;verticalAlign=bottom;endArrow=open;dashed=1;endSize=8;curved=0;rounded=0;exitX=0.5;exitY=1;exitDx=0;exitDy=0;" edge="1" parent="1" source="7u9iXZtJOxeO_7T2Gz0u-27" target="7u9iXZtJOxeO_7T2Gz0u-30">
          <mxGeometry relative="1" as="geometry">
            <mxPoint x="570" y="450" as="sourcePoint" />
            <mxPoint x="490" y="450" as="targetPoint" />
            <Array as="points">
              <mxPoint x="610" y="500" />
            </Array>
          </mxGeometry>
        </mxCell>
      </root>
    </mxGraphModel>
  </diagram>
</mxfile>
